<svg width="24" height="24" viewBox="0 0 24 24" fill="none" xmlns="http://www.w3.org/2000/svg">
<path d="M9 20.9926H7C4.79086 20.9926 3 19.2017 3 16.9926V10.7002C3 9.30145 3.73061 8.00433 4.92679 7.27938L9.92679 4.24907C11.2011 3.4768 12.7989 3.47679 14.0732 4.24907L19.0732 7.27938C20.2694 8.00433 21 9.30145 21 10.7002V16.9926C21 19.2017 19.2091 20.9926 17 20.9926H15M9 20.9926V16.9926C9 15.3357 10.3431 13.9926 12 13.9926V13.9926C13.6569 13.9926 15 15.3357 15 16.9926V20.9926M9 20.9926H15" stroke="#2E3333" stroke-width="1.5" stroke-linecap="round" stroke-linejoin="round"/>
</svg>
